<?xml version="1.0" encoding="UTF-8" standalone="no"?>
<!-- Generator: Adobe Illustrator 16.0.0, SVG Export Plug-In . SVG Version: 6.00 Build 0)  -->

<svg
   xmlns:dc="http://purl.org/dc/elements/1.1/"
   xmlns:cc="http://creativecommons.org/ns#"
   xmlns:rdf="http://www.w3.org/1999/02/22-rdf-syntax-ns#"
   xmlns:svg="http://www.w3.org/2000/svg"
   xmlns="http://www.w3.org/2000/svg"
   xmlns:sodipodi="http://sodipodi.sourceforge.net/DTD/sodipodi-0.dtd"
   xmlns:inkscape="http://www.inkscape.org/namespaces/inkscape"
   version="1.1"
   x="0px"
   y="0px"
   width="1.6279482in"
   height="1.4372709in"
   viewBox="0 0 156.28303 137.978"
   enable-background="new 0 0 800 600"
   xml:space="preserve"
   id="svg26"
   sodipodi:docname="logo.svg"
   inkscape:version="0.92.2 5c3e80d, 2017-08-06"><metadata
     id="metadata32"><rdf:RDF><cc:Work
         rdf:about=""><dc:format>image/svg+xml</dc:format><dc:type
           rdf:resource="http://purl.org/dc/dcmitype/StillImage" /><dc:title></dc:title></cc:Work></rdf:RDF></metadata><defs
     id="defs30" /><sodipodi:namedview
     pagecolor="#ffffff"
     bordercolor="#666666"
     borderopacity="1"
     objecttolerance="10"
     gridtolerance="10"
     guidetolerance="10"
     inkscape:pageopacity="0"
     inkscape:pageshadow="2"
     inkscape:window-width="1914"
     inkscape:window-height="1077"
     id="namedview28"
     showgrid="true"
     inkscape:snap-global="false"
     showguides="false"
     inkscape:zoom="1.5733333"
     inkscape:cx="189.69727"
     inkscape:cy="-53.323613"
     inkscape:window-x="0"
     inkscape:window-y="20"
     inkscape:window-maximized="0"
     inkscape:current-layer="g3736"
     units="in"
     fit-margin-top="0"
     fit-margin-left="0"
     fit-margin-right="0"
     fit-margin-bottom="0" /><g
     id="word"
     transform="translate(-291.8648,-220.23941)" /><g
     id="g3758"
     transform="translate(-291.8648,-220.23941)"><g
       id="g3776"><g
         id="g3738"
         clip-path="none"
         transform="translate(107.41525,-20.974577)"><g
           inkscape:label="Clip"
           id="g3736"
           transform="translate(-176.05933,8.2627129)"><g
             id="LOGO"
             transform="translate(90.254237,12.076275)"><g
               id="g23"><path
                 id="path3"
                 d="m 412.339,289.864 c 0,38.101 -30.888,68.989 -68.99,68.989 -38.102,0 -68.989,-30.888 -68.989,-68.989 0,-24.266 12.527,-45.604 31.467,-57.903 10.8,-7.013 23.685,-11.086 37.521,-11.086 38.103,0 68.991,30.888 68.991,68.989 z"
                 inkscape:connector-curvature="0"
                 style="fill:#44bee8" /><path
                 id="path5"
                 d="m 419.098,266.766 c -6.379,-19.308 -14.961,-25.544 -18.221,-27.294 -0.701,-0.797 -1.531,-1.21 -2.274,-0.999 l -93.664,26.608 c -0.492,0.138 -0.876,0.524 -1.131,1.073 l -0.026,-0.09 c -7.899,10.494 -1.966,34.018 -1.966,34.018 8.029,24.303 19.556,27.901 19.556,27.901 l -0.06,-0.211 c 0.504,0.332 1.034,0.455 1.526,0.317 l 93.664,-26.606 c 0.683,-0.193 1.152,-0.867 1.363,-1.784 6.777,-10.941 1.233,-32.933 1.233,-32.933 z"
                 inkscape:connector-curvature="0"
                 style="fill:#ffffff" /><path
                 id="path7"
                 d="m 424.565,260.797 c -6.276,-18.869 -14.958,-24.885 -18.265,-26.563 -0.704,-0.773 -1.544,-1.17 -2.307,-0.953 L 308.1,260.519 c -0.503,0.144 -0.899,0.528 -1.167,1.067 l -0.024,-0.086 c -8.187,10.393 -2.418,33.403 -2.418,33.403 7.9,23.75 19.618,27.145 19.618,27.145 l -0.059,-0.208 c 0.51,0.317 1.049,0.435 1.553,0.293 l 95.89,-27.239 c 0.701,-0.198 1.188,-0.866 1.417,-1.768 7.048,-10.815 1.655,-32.329 1.655,-32.329 z"
                 inkscape:connector-curvature="0"
                 style="fill:#1d2a5b" /><circle
                 id="circle9"
                 r="7.8610001"
                 cy="267.24301"
                 cx="398.44101"
                 style="fill:#ea5514" /><circle
                 id="circle11"
                 r="7.862"
                 cy="283.91901"
                 cx="342.15799"
                 style="fill:#6ebd72" /><path
                 id="path13"
                 d="m 297.177,291.7 -26.921,11.62 c 0,0 -0.39,16.639 12.053,22.206 l 26.899,-12.381 c 0,0 -11.391,-12.132 -12.031,-21.445 z"
                 inkscape:connector-curvature="0"
                 style="fill:#ffffff" /><path
                 id="path15"
                 d="m 300.923,285.172 c 0,0 -0.032,3.658 0.388,6.655 l -28.277,12.574 c 0,0 -0.229,-3.839 0.015,-6.646 z"
                 inkscape:connector-curvature="0"
                 style="fill:#f5c83a" /><path
                 id="path17"
                 d="m 301.311,291.828 c 0,0 0.908,5.561 1.399,5.976 l -29.255,13.175 c 0,0 -0.55,-4.872 -0.42,-6.577 z"
                 inkscape:connector-curvature="0"
                 style="fill:#e4740f" /><path
                 id="path19"
                 d="m 302.71,297.803 c 0,0 1.16,4.758 1.642,5.515 l -29.85,13.884 c 0,0 -0.94,-5.194 -1.047,-6.224 z"
                 inkscape:connector-curvature="0"
                 style="fill:#ca151d" /><path
                 id="path21"
                 d="m 304.352,303.318 c 0,0 1.226,4.427 1.906,5.458 0.681,1.034 -30.171,13.896 -30.171,13.896 0,0 -1.399,-4.371 -1.656,-5.819 z"
                 inkscape:connector-curvature="0"
                 style="fill:#921672" /></g></g></g></g><g
         id="g3785" /></g></g></svg>